<?xml version="1.0" standalone="no"?>
<!DOCTYPE svg PUBLIC "-//W3C//DTD SVG 20010904//EN"
 "http://www.w3.org/TR/2001/REC-SVG-20010904/DTD/svg10.dtd">
<svg version="1.0" xmlns="http://www.w3.org/2000/svg"
 width="640.000000pt" height="640.000000pt" viewBox="0 0 640.000000 640.000000"
 preserveAspectRatio="xMidYMid meet">
<metadata>
Created by potrace 1.11, written by Peter Selinger 2001-2013
</metadata>
<g transform="translate(0.000000,640.000000) scale(0.100000,-0.100000)"
fill="#000000" stroke="none">
<path d="M1895 6380 c10 -11 19 -20 21 -20 1 0 0 9 -3 20 -3 11 -12 20 -21 20
-13 0 -12 -3 3 -20z"/>
<path d="M1963 6378 c4 -13 2 -29 -2 -37 -9 -14 23 -100 42 -113 6 -3 12 -12
13 -20 6 -30 41 -84 53 -80 23 8 79 -8 116 -33 38 -26 115 -43 115 -25 0 5
-11 10 -25 10 -27 0 -48 31 -27 38 7 2 12 12 12 23 0 12 7 19 20 19 12 0 20
-7 20 -18 0 -9 9 -23 20 -30 25 -15 27 -36 3 -28 -17 6 -17 5 0 -8 9 -7 17
-18 17 -24 0 -14 35 -34 43 -25 11 10 36 -18 30 -33 -3 -8 0 -21 7 -29 7 -8
10 -24 7 -35 -3 -13 1 -21 12 -25 10 -3 24 -21 31 -40 17 -45 45 -48 35 -5 -4
17 -3 30 0 30 4 0 32 -14 61 -31 l54 -30 40 22 c22 12 42 21 44 18 3 -3 59
-111 94 -179 1 -3 -13 -11 -32 -18 -19 -7 -41 -24 -50 -37 -12 -19 -26 -25
-54 -26 -20 -1 -50 -4 -67 -8 -30 -7 -29 -7 16 -19 25 -6 52 -18 59 -27 7 -8
17 -15 23 -15 5 0 16 -8 24 -17 8 -10 12 -12 8 -6 -4 10 6 12 41 8 78 -7 76
-28 -3 -27 -41 1 -77 8 -183 33 -8 2 -17 7 -20 10 -3 4 -16 9 -30 13 -21 6
-20 4 8 -14 30 -20 32 -25 26 -59 -4 -20 -8 -37 -9 -39 -1 -1 -17 4 -36 12
-52 22 -279 0 -279 -26 0 -13 -91 -1 -105 14 -7 6 -2 16 13 28 15 12 22 28 20
42 -3 23 -2 23 110 25 63 0 116 4 119 7 4 3 -7 6 -23 7 -16 0 -47 2 -69 5 -22
2 -54 6 -72 7 -35 2 -49 19 -18 22 65 5 93 16 99 39 7 29 31 40 56 26 22 -12
40 -13 40 -2 0 14 -84 56 -88 43 -2 -6 -12 -11 -21 -11 -22 0 -48 -28 -53 -55
-2 -17 -9 -19 -40 -15 l-38 5 110 112 c61 62 110 117 110 123 0 5 7 10 16 10
11 0 14 5 10 16 -3 9 -6 19 -6 22 0 4 -4 1 -9 -7 -5 -8 -25 -15 -45 -15 -20
-1 -36 -5 -36 -10 0 -6 -5 -5 -12 2 -16 16 -29 15 -23 0 7 -20 -10 -40 -31
-36 -11 2 -28 -7 -39 -19 -11 -12 -44 -32 -74 -43 -30 -11 -66 -30 -80 -41
-96 -74 -123 -90 -134 -81 -12 10 -219 37 -247 32 -8 -1 -52 -3 -98 -5 -45 -1
-85 -5 -89 -9 -3 -3 -17 -6 -30 -6 -13 0 -23 -4 -23 -10 0 -5 5 -10 10 -10 6
0 10 -10 9 -22 0 -13 -3 -17 -6 -10 -2 6 -9 12 -14 12 -6 0 -7 -4 -4 -10 3 -5
-1 -10 -9 -10 -9 0 -16 -4 -16 -9 0 -13 51 0 57 16 17 44 185 71 246 39 16 -9
40 -13 56 -10 17 4 31 0 40 -9 12 -15 5 -18 -59 -32 -28 -6 -49 -18 -45 -26 4
-5 -5 -9 -18 -9 -14 0 -27 -7 -30 -14 -3 -8 -19 -22 -36 -30 -37 -20 -131 -28
-131 -12 0 6 -5 3 -11 -7 -11 -20 -31 -14 -23 7 3 9 -6 18 -25 24 -18 7 -35
22 -41 36 -10 29 -22 33 -38 14 -16 -20 -3 -64 23 -78 17 -9 24 -23 27 -52 3
-32 -1 -43 -24 -63 -15 -14 -32 -25 -38 -25 -16 0 -54 -23 -68 -42 -7 -10 -20
-18 -29 -18 -8 0 -24 -11 -35 -25 -39 -50 -97 -24 -144 65 -19 36 -38 72 -42
80 -5 8 -22 42 -37 75 -43 90 -155 235 -180 235 -8 0 -25 15 -39 32 l-25 33
-30 -35 c-17 -19 -30 -44 -31 -56 0 -11 -7 -29 -15 -40 -8 -10 -15 -29 -15
-41 0 -13 -4 -23 -9 -23 -5 0 -9 -10 -10 -22 -4 -85 -6 -93 -25 -90 -15 3 -17
-1 -12 -20 11 -32 9 -60 -4 -68 -8 -5 -8 -15 0 -35 6 -16 8 -40 5 -53 -7 -29
39 -75 69 -68 10 3 28 -1 40 -7 11 -7 23 -13 25 -14 2 -1 -4 -9 -12 -18 -11
-10 -26 -14 -47 -10 -20 4 -36 0 -46 -10 -18 -17 -34 -20 -34 -5 0 6 7 10 16
10 8 0 13 4 9 9 -3 5 3 12 12 14 10 3 4 5 -13 6 -37 1 -46 11 -63 69 -7 24
-21 51 -31 60 -81 72 -88 83 -80 119 5 18 4 33 -1 33 -5 0 -9 7 -9 15 0 8 4
15 9 15 4 0 6 12 3 28 -5 24 -3 25 11 14 13 -11 15 -10 10 7 -3 12 -10 21 -16
21 -9 0 -7 34 6 145 0 6 9 18 19 28 15 14 18 14 18 2 0 -8 4 -15 8 -15 4 0 8
18 7 40 0 22 -4 40 -9 40 -5 0 -2 8 7 18 16 17 29 70 32 132 3 46 3 46 18 28
13 -17 67 -33 67 -20 0 15 -106 112 -123 112 -9 0 -17 -3 -17 -7 -1 -5 -3 -62
-6 -128 -3 -66 -9 -129 -14 -140 -60 -130 -69 -162 -48 -183 16 -16 16 -126
-1 -146 -10 -12 -12 -31 -8 -69 5 -41 13 -57 36 -77 18 -15 34 -42 40 -66 6
-23 21 -54 33 -69 14 -18 18 -32 12 -40 -44 -59 -44 -61 -33 -95 9 -25 9 -37
0 -52 -9 -14 -9 -29 -1 -59 18 -66 14 -69 -83 -51 -96 17 -113 14 -127 -24
-15 -38 11 -77 45 -68 31 8 44 -19 22 -44 -13 -15 -13 -22 -2 -55 7 -21 19
-44 27 -50 7 -7 24 -34 38 -62 22 -48 25 -50 65 -51 65 -1 165 -26 165 -41 0
-7 -7 -13 -15 -13 -8 0 -23 -9 -33 -20 -23 -25 -18 -80 7 -80 9 0 22 -14 30
-31 17 -38 49 -53 94 -45 32 6 91 48 81 58 -2 3 34 4 81 3 74 -2 89 -5 110
-25 14 -13 25 -34 25 -46 0 -27 20 -43 21 -17 0 12 4 9 11 -9 5 -16 16 -28 23
-28 7 0 15 -15 18 -32 13 -75 20 -98 28 -98 5 0 6 7 3 15 -8 21 15 19 35 -2 9
-10 24 -18 35 -18 10 0 22 -10 27 -22 6 -17 5 -21 -7 -16 -8 3 -14 -1 -14 -11
0 -9 7 -16 15 -16 12 0 15 -13 15 -60 0 -55 2 -61 24 -70 27 -10 44 -30 25
-30 -8 0 -9 -3 0 -13 6 -8 8 -16 5 -19 -3 -4 15 -11 41 -16 46 -10 89 -6 80 8
-2 3 3 17 12 29 11 16 18 20 26 12 17 -17 45 -13 57 8 14 27 13 31 -10 31 -12
0 -25 10 -31 23 -5 12 -27 31 -47 42 -45 24 -83 94 -79 144 l2 35 75 13 c52 9
84 9 104 3 47 -16 66 -13 63 10 -3 20 -73 64 -88 55 -12 -8 -39 24 -33 40 4 8
-20 41 -60 82 -59 62 -63 69 -45 75 12 5 44 1 76 -8 53 -15 76 -13 57 5 -8 9
-83 42 -319 140 -119 50 -123 52 -130 41 -7 -12 5 -41 16 -35 18 12 40 -71 23
-88 -4 -3 -14 2 -23 13 -10 13 -35 21 -71 25 -30 4 -73 8 -95 11 -22 2 -83 9
-135 15 -65 8 -99 8 -111 1 -11 -7 -20 -7 -28 1 -15 15 -14 34 2 40 21 9 -15
27 -55 27 -43 0 -53 11 -38 40 10 18 7 25 -14 45 -32 29 -32 33 -3 37 14 2 23
11 25 25 2 12 11 25 21 28 20 6 99 -8 160 -28 29 -10 41 -11 38 -4 -5 15 -57
41 -127 63 -80 25 -90 37 -90 105 0 36 5 59 13 62 10 4 10 6 0 6 -8 1 -13 15
-13 36 0 42 16 39 46 -9 18 -28 19 -35 7 -52 -10 -16 -11 -25 0 -47 6 -15 15
-27 20 -27 4 0 7 -7 7 -15 0 -8 24 -27 52 -41 58 -29 138 -40 138 -19 0 14 28
24 48 18 15 -6 16 -35 1 -50 -7 -7 -7 -13 0 -17 9 -6 42 23 79 68 24 30 31 16
12 -26 -26 -58 -25 -93 2 -113 21 -14 24 -14 36 2 7 10 11 26 9 35 -3 10 15
50 39 90 24 40 44 78 44 85 0 26 38 40 90 33 28 -4 76 -4 106 -2 49 4 61 10
94 43 23 23 48 39 62 39 16 0 27 9 36 29 17 38 8 56 -36 75 -20 8 -30 15 -21
15 9 1 30 -6 45 -14 16 -8 38 -15 50 -15 11 0 21 -6 22 -12 0 -7 3 -22 7 -33
5 -17 -2 -25 -35 -44 -37 -21 -83 -81 -61 -81 5 0 17 -3 27 -7 11 -4 15 -3 10
5 -6 11 30 52 46 52 4 0 8 -11 8 -24 0 -14 5 -28 10 -31 6 -3 10 -15 10 -26 0
-11 15 -34 34 -52 27 -27 32 -38 28 -65 -2 -18 0 -32 6 -32 5 0 9 -21 8 -47
-1 -32 5 -60 19 -85 21 -39 72 -84 82 -74 4 3 -2 13 -13 21 -22 17 -12 20 17
5 15 -9 21 -7 25 5 8 19 24 20 24 0 0 -8 -4 -15 -10 -15 -5 0 -10 -4 -10 -10
0 -5 7 -10 15 -10 8 0 15 -6 15 -14 0 -7 7 -19 15 -26 9 -7 13 -20 10 -30 -3
-9 4 -28 15 -43 11 -14 20 -31 20 -39 0 -8 5 -19 11 -25 15 -15 3 -33 -21 -33
-10 0 -22 -5 -25 -10 -4 -7 -19 -3 -39 10 -29 18 -86 28 -86 15 0 -14 89 -85
108 -85 12 0 22 -6 22 -14 0 -17 86 -76 109 -76 17 1 141 160 141 181 0 17
-57 -45 -62 -67 -5 -29 -31 -22 -39 10 -13 46 7 222 28 251 20 27 63 34 63 10
0 -8 7 -15 15 -15 8 0 15 5 15 10 0 14 27 13 36 -1 3 -6 0 -15 -7 -20 -11 -6
-10 -9 4 -15 23 -9 21 -31 -7 -68 -13 -17 -27 -42 -31 -56 -7 -23 -6 -22 19 7
27 32 140 123 153 123 3 0 15 7 25 17 14 12 18 13 18 3 0 -11 3 -11 12 -2 19
19 60 14 97 -11 19 -12 43 -27 53 -33 10 -6 25 -19 32 -29 15 -20 39 -18 126
13 72 25 173 36 200 22 12 -6 42 -15 68 -20 88 -16 267 -58 357 -84 107 -31
117 -31 86 -6 -19 16 -22 26 -17 54 10 53 36 70 93 61 26 -5 59 -7 71 -6 21 2
23 0 17 -21 -8 -25 -43 -68 -57 -68 -13 0 -9 22 9 42 20 23 17 25 -35 32 -37
4 -42 2 -42 -15 0 -13 7 -19 21 -19 19 0 20 -4 14 -36 -5 -30 -4 -36 9 -31 8
3 20 -1 26 -9 7 -8 20 -14 29 -14 9 0 23 -5 31 -10 12 -8 13 -11 1 -19 -9 -6
11 -13 60 -24 182 -38 197 -40 228 -29 30 11 31 10 31 -19 0 -20 5 -29 17 -29
9 0 31 -5 50 -12 45 -16 50 -6 14 33 -16 19 -43 50 -60 69 -69 77 -14 84 131
16 53 -25 102 -46 108 -46 5 0 10 -4 10 -9 0 -5 7 -12 16 -15 12 -4 15 -2 10
9 -3 8 -1 15 4 15 6 0 10 5 10 10 0 6 -6 10 -14 10 -20 0 -100 35 -174 76 -56
32 -61 37 -47 51 29 28 223 7 376 -42 26 -8 56 -15 66 -15 23 0 139 -110 148
-140 4 -11 10 -20 15 -20 5 0 10 -10 12 -22 3 -22 85 -76 140 -94 20 -6 21 -5
9 10 -7 9 -18 16 -23 16 -6 0 -24 10 -41 22 -18 13 -37 22 -44 20 -12 -3 -39
65 -29 75 3 3 12 1 19 -5 8 -7 17 -8 22 -4 4 4 4 -3 1 -15 -9 -30 40 -58 67
-38 9 7 17 17 17 23 0 13 -47 36 -110 53 -42 12 -80 41 -80 61 0 5 30 -7 67
-26 37 -20 74 -36 81 -36 25 0 -7 30 -52 49 -36 16 -59 25 -151 61 -46 18 -82
29 -115 36 -19 3 -39 10 -45 14 -24 18 -243 70 -303 72 -52 2 -73 21 -43 40
24 15 28 38 6 38 -9 0 -12 6 -8 16 5 13 16 15 57 11 28 -3 59 -8 69 -12 10 -4
17 -3 17 4 0 6 -12 11 -27 11 -16 0 -37 7 -47 15 -11 8 -30 15 -44 15 -13 0
-20 4 -17 10 3 6 -1 10 -9 10 -9 0 -16 8 -16 19 0 21 53 65 104 86 33 14 66
45 35 33 -74 -29 -111 -46 -166 -74 -79 -39 -104 -34 -93 21 1 6 -2 7 -6 3
-12 -13 -34 13 -34 39 0 13 7 26 15 29 8 4 13 10 10 15 -7 11 21 78 43 104 10
11 24 33 32 49 33 67 230 243 230 206 0 -6 7 -10 15 -10 8 0 15 5 15 11 0 6 7
8 16 5 9 -4 24 5 39 22 19 21 27 24 34 13 6 -9 10 -10 16 -2 4 7 1 19 -6 27
-13 16 -13 16 16 32 15 8 16 12 5 13 -8 0 5 6 30 12 38 10 47 17 56 46 13 40
35 58 81 67 19 4 32 11 30 18 -3 6 -10 10 -17 8 -33 -8 -39 8 -15 34 35 37 31
47 -10 27 -19 -9 -32 -20 -29 -24 6 -10 -33 -22 -46 -14 -6 4 -23 -7 -37 -24
-17 -19 -37 -31 -52 -31 l-24 0 27 26 c14 15 26 30 26 35 0 4 3 14 6 23 4 10
1 16 -8 16 -8 0 -23 7 -34 16 -18 14 -16 15 22 11 37 -4 45 -1 74 29 34 37 19
48 -18 14 -20 -19 -22 -19 -22 -4 0 15 -3 15 -20 -4 -26 -28 -29 -28 -23 1 4
22 4 22 -17 -3 -43 -50 -109 -115 -135 -135 -35 -26 -84 -77 -82 -84 1 -6
-140 -151 -148 -151 -3 0 -5 10 -5 23 0 13 -11 34 -25 47 -14 13 -41 52 -60
86 -19 34 -45 68 -57 76 -13 9 -38 29 -55 46 -21 18 -33 25 -33 16 0 -21 -34
-17 -55 6 -11 12 -35 30 -54 41 -20 12 -49 38 -66 60 -37 48 -73 69 -117 68
l-33 -1 30 -10 c43 -15 52 -24 77 -77 13 -25 26 -47 31 -49 4 -2 7 -15 7 -28
0 -25 15 -33 23 -11 3 6 6 -1 6 -18 1 -21 4 -26 10 -16 6 9 11 10 15 2 11 -16
-41 -33 -64 -21 -10 5 -20 15 -23 22 -3 9 -12 3 -26 -14 -13 -16 -31 -28 -41
-28 -25 0 -105 84 -131 136 -11 24 -27 44 -35 44 -8 0 -14 5 -14 10 0 6 -6 10
-13 10 -18 0 -49 37 -70 83 -9 20 -34 56 -55 80 -55 61 -102 128 -102 147 0 9
16 20 43 28 62 19 87 39 87 67 0 26 -15 34 -23 13 -4 -10 -6 -9 -6 1 -1 7 -18
-5 -38 -27 -40 -42 -83 -63 -83 -41 0 7 6 20 14 28 7 9 18 49 25 90 10 65 10
76 -4 90 -15 15 -16 13 -13 -24 2 -30 -1 -40 -12 -40 -9 0 -14 7 -12 18 2 9
-2 17 -8 17 -5 0 -10 -5 -10 -12 0 -6 -3 -9 -6 -6 -3 4 -1 16 6 27 11 22 -3
30 -16 9 -13 -20 -11 -78 1 -68 7 6 16 5 23 -2 17 -17 15 -28 -5 -28 -9 0 -24
-7 -34 -16 -16 -14 -18 -14 -28 3 -9 18 -77 40 -141 46 -21 2 -25 -3 -28 -30
-4 -40 -24 -48 -70 -26 -21 10 -45 16 -54 15 -25 -5 -22 13 5 27 12 6 15 10 7
8 -17 -5 -70 29 -70 44 0 6 13 16 29 22 20 9 27 17 22 25 -12 19 -36 5 -67
-39 -25 -36 -30 -39 -63 -35 -45 6 -115 31 -158 56 -18 11 -33 15 -33 10 0
-18 -20 -10 -20 8 -1 10 -37 43 -87 80 -71 51 -84 58 -80 40z m72 -88 c3 -5
-1 -10 -9 -10 -9 0 -16 5 -16 10 0 6 4 10 9 10 6 0 13 -4 16 -10z m55 -10 c0
-5 -4 -10 -10 -10 -5 0 -10 5 -10 10 0 6 5 10 10 10 6 0 10 -4 10 -10z m390
-190 c0 -5 -4 -10 -10 -10 -5 0 -10 5 -10 10 0 6 5 10 10 10 6 0 10 -4 10 -10z
m148 -52 c5 -15 7 -30 2 -33 -4 -3 -11 3 -15 13 -6 16 -7 16 -21 -2 -12 -17
-14 -18 -14 -3 0 9 -4 17 -9 17 -5 0 -8 -7 -7 -16 2 -26 -21 -27 -27 -2 -5 17
-9 20 -18 11 -8 -8 -8 -17 1 -33 16 -30 6 -36 -19 -11 -11 11 -27 18 -34 15
-9 -3 -13 2 -12 18 1 15 10 25 26 30 13 3 38 11 54 16 52 17 81 11 93 -20z
m-48 -68 c0 -5 -4 -10 -10 -10 -5 0 -10 5 -10 10 0 6 5 10 10 10 6 0 10 -4 10
-10z m-63 -46 c3 -9 12 -13 22 -9 37 15 141 5 141 -14 0 -3 -14 -15 -30 -25
-28 -16 -34 -16 -78 -2 -53 18 -92 42 -92 57 0 15 30 10 37 -7z m-1767 -184
c0 -5 -4 -10 -10 -10 -5 0 -10 5 -10 10 0 6 5 10 10 10 6 0 10 -4 10 -10z m10
-44 c0 -8 3 -21 6 -30 5 -12 0 -16 -20 -16 -24 0 -25 2 -16 20 6 11 8 20 5 20
-4 0 -3 5 0 10 9 15 25 12 25 -4z m2150 -15 c0 -17 -18 -21 -24 -6 -3 9 0 15
9 15 8 0 15 -4 15 -9z m149 -45 c13 -12 21 -14 21 -7 0 21 20 1 35 -35 8 -19
19 -61 26 -94 7 -38 17 -60 25 -60 8 0 14 -7 14 -15 0 -8 5 -15 10 -15 6 0 30
-19 54 -43 36 -35 45 -51 51 -94 5 -40 11 -52 28 -57 12 -3 18 -8 14 -12 -9
-10 12 -46 23 -39 6 3 16 -7 22 -22 7 -15 19 -33 26 -38 11 -9 10 -16 -2 -40
-18 -34 -21 -59 -6 -50 6 3 10 -2 11 -12 0 -10 3 -13 5 -6 8 19 34 3 34 -21 0
-17 -2 -18 -10 -6 -7 11 -8 6 -4 -16 5 -26 2 -32 -15 -37 -12 -3 -21 -13 -21
-25 0 -10 -9 -27 -19 -36 -18 -16 -20 -16 -38 11 -31 45 -75 123 -114 204 -20
42 -41 79 -47 83 -5 3 -22 30 -37 61 -15 30 -36 63 -46 74 -11 11 -19 29 -19
40 0 11 -4 22 -10 26 -22 13 -141 204 -144 230 -2 15 -11 34 -21 41 -10 8 -16
16 -13 20 10 9 59 -39 79 -78 18 -36 39 -50 39 -28 0 6 5 10 10 10 6 0 10 -7
10 -15 0 -8 -7 -15 -15 -15 -12 0 -11 -5 3 -30 20 -35 32 -38 32 -10 0 11 7
20 15 20 8 0 15 3 15 8 0 13 -33 56 -57 75 -13 10 -23 26 -23 36 0 9 -5 22
-11 28 -20 20 48 9 70 -11z m-2359 -16 c0 -5 -4 -10 -10 -10 -5 0 -10 5 -10
10 0 6 5 10 10 10 6 0 10 -4 10 -10z m1310 0 c0 -5 -5 -10 -11 -10 -5 0 -7 5
-4 10 3 6 8 10 11 10 2 0 4 -4 4 -10z m-1145 -10 c3 -5 -1 -10 -10 -10 -9 0
-13 5 -10 10 3 6 8 10 10 10 2 0 7 -4 10 -10z m-155 -48 c0 -14 2 -15 10 -2 5
8 12 11 17 7 12 -12 -15 -25 -43 -19 -25 5 -33 27 -11 35 17 6 27 -1 27 -21z
m1222 -21 c19 -16 42 -31 53 -33 18 -3 55 -38 55 -52 0 -3 14 -20 30 -38 17
-17 30 -38 30 -46 0 -12 -3 -12 -14 4 -14 19 -15 18 -41 -6 -16 -15 -29 -21
-33 -14 -4 5 -28 18 -54 28 -38 14 -51 15 -69 5 -20 -10 -21 -9 -16 10 3 11 1
23 -4 26 -4 3 -6 11 -3 18 4 11 7 36 13 110 2 24 15 21 53 -12z m-552 15 c0
-3 -4 -8 -10 -11 -5 -3 -10 -1 -10 4 0 6 5 11 10 11 6 0 10 -2 10 -4z m437
-12 c25 -7 36 -47 20 -81 -10 -23 -97 -73 -126 -73 -15 0 -137 -37 -206 -63
-16 -6 -48 -11 -70 -11 -34 0 -75 -19 -75 -36 0 -3 13 -13 29 -23 32 -19 61
-18 85 2 13 11 17 9 26 -14 16 -42 13 -47 -21 -40 -53 12 -95 8 -144 -14 -26
-12 -55 -21 -65 -21 -17 0 -51 30 -34 30 5 0 3 4 -4 9 -11 6 -8 13 13 29 14
11 28 33 31 49 6 31 19 43 49 43 20 0 105 38 115 52 3 3 28 12 55 19 64 15
122 47 128 70 3 10 18 21 33 25 16 4 38 15 49 24 29 26 71 35 112 24z m1689
-40 c13 -14 24 -20 24 -14 0 8 11 9 33 5 32 -8 82 -54 118 -110 11 -17 19 -24
19 -15 1 8 11 -5 22 -30 12 -25 26 -48 31 -51 5 -4 4 -15 -2 -28 -8 -14 -8
-21 -1 -21 5 0 10 -7 10 -15 0 -19 -14 -19 -30 0 -7 8 -17 12 -23 8 -5 -3 -17
3 -25 13 -13 16 -14 17 -9 2 9 -25 -15 -23 -38 2 -13 14 -15 23 -7 32 16 20
19 78 4 87 -8 5 -19 19 -25 31 -7 13 -21 28 -31 34 -11 6 -28 19 -38 29 -10 9
-22 17 -27 17 -12 0 -41 29 -41 41 0 15 12 10 36 -17z m-2646 -13 c0 -6 -5
-13 -10 -16 -15 -9 -43 3 -35 15 8 13 45 13 45 1z m1877 -33 c18 -9 27 -8 41
5 24 22 39 21 47 -2 6 -20 44 -35 68 -25 10 4 16 -4 19 -26 6 -42 -7 -123 -21
-128 -6 -2 -8 -8 -5 -13 3 -6 -2 -21 -11 -36 -15 -22 -15 -27 -2 -40 12 -13
16 -10 31 21 22 46 39 140 34 188 -3 31 0 38 15 38 9 0 20 -8 24 -17 3 -10 30
-47 60 -82 39 -47 51 -67 43 -76 -7 -9 -6 -16 6 -25 15 -13 44 -62 44 -75 0
-3 -5 -3 -12 1 -7 5 -9 2 -5 -9 4 -12 2 -14 -11 -9 -15 5 -15 3 1 -22 28 -42
11 -44 -25 -4 -18 20 -48 41 -67 47 -43 14 -111 14 -111 1 0 -5 8 -10 19 -10
10 0 24 -6 30 -14 10 -12 6 -13 -22 -7 -18 5 -45 16 -60 26 -15 10 -30 15 -34
11 -10 -10 -33 15 -33 36 0 17 5 19 27 15 26 -5 26 -4 8 9 -45 32 -64 53 -71
80 -13 50 -39 87 -69 97 -17 6 -33 14 -36 20 -4 5 -12 6 -19 2 -9 -6 -11 -4
-5 4 4 8 17 10 31 7 14 -4 24 -2 24 4 0 5 -11 10 -25 10 -14 0 -25 4 -25 9 0
12 66 4 97 -11z m-1147 2 c0 -5 -2 -10 -4 -10 -3 0 -8 5 -11 10 -3 6 -1 10 4
10 6 0 11 -4 11 -10z m-930 -34 c0 -3 -4 -8 -10 -11 -5 -3 -10 -1 -10 4 0 6 5
11 10 11 6 0 10 -2 10 -4z m230 -27 c0 -5 -4 -9 -10 -9 -5 0 -10 7 -10 16 0 8
5 12 10 9 6 -3 10 -10 10 -16z m950 -3 c0 -22 -11 -46 -21 -46 -10 0 -12 43
-2 53 11 12 23 8 23 -7z m2400 4 c0 -5 -4 -10 -10 -10 -5 0 -10 5 -10 10 0 6
5 10 10 10 6 0 10 -4 10 -10z m-3570 -20 c0 -5 -7 -7 -15 -4 -8 4 -15 8 -15
10 0 2 7 4 15 4 8 0 15 -4 15 -10z m1761 -15 c23 -12 38 -14 65 -6 38 11 94 4
94 -10 0 -5 11 -9 25 -9 14 0 25 -4 25 -9 0 -5 13 -11 29 -14 16 -4 45 -22 64
-42 34 -35 47 -78 47 -156 0 -23 7 -31 34 -43 18 -8 40 -23 48 -35 8 -11 30
-27 50 -35 33 -14 70 -46 52 -46 -4 0 8 -15 27 -32 35 -33 35 -34 29 -97 -5
-53 -3 -67 13 -88 21 -26 17 -53 -9 -53 -10 0 -14 -5 -11 -14 3 -8 -1 -17 -9
-20 -9 -3 -13 -10 -9 -16 9 -15 -74 -70 -107 -70 -41 0 -144 50 -127 61 11 7
9 9 -6 10 -35 3 -40 5 -56 14 -21 14 -93 113 -108 150 -15 39 8 121 41 147
l23 18 -25 0 c-14 0 -35 3 -47 6 -18 5 -20 9 -10 25 9 15 7 23 -13 45 -21 23
-107 85 -144 105 -52 28 -57 29 -76 19 -28 -15 -40 -12 -40 10 0 12 -9 38 -20
60 -28 54 -26 64 10 57 23 -5 33 -1 47 16 10 13 27 28 38 35 11 6 14 12 7 12
-15 0 -6 20 9 20 6 0 23 -7 40 -15z m-375 -32 c-10 -10 -19 5 -10 18 6 11 8
11 12 0 2 -7 1 -15 -2 -18z m-1228 -1 c2 -7 -3 -12 -12 -12 -9 0 -16 7 -16 16
0 17 22 14 28 -4z m1026 6 c29 -112 36 -150 27 -167 -15 -26 -42 -191 -35
-203 4 -6 1 -9 -7 -6 -8 2 -22 20 -32 39 l-18 34 6 -30 c3 -16 13 -49 22 -73
21 -55 35 -42 52 48 7 36 19 72 27 80 11 11 14 12 14 1 0 -8 6 -19 14 -25 21
-15 93 -147 98 -176 2 -19 -3 -25 -27 -32 -16 -5 -49 -6 -73 -4 -50 7 -82 -7
-82 -33 0 -13 -9 -20 -27 -24 -38 -6 -127 -40 -131 -50 -7 -14 -21 4 -15 18 3
8 0 15 -5 15 -6 0 -14 16 -18 35 -7 40 8 67 33 58 12 -5 14 -1 8 15 -5 19 -2
22 20 22 34 0 28 24 -6 28 -33 4 -89 34 -89 48 0 6 -7 17 -15 24 -22 18 -19
67 5 80 21 11 28 54 10 65 -5 3 -10 28 -10 54 0 46 1 48 26 43 14 -2 30 -15
36 -27 6 -13 21 -28 34 -34 13 -6 24 -16 24 -22 0 -6 9 -19 20 -29 10 -9 24
-30 31 -46 6 -16 13 -24 16 -18 4 12 -67 181 -93 222 -14 22 -14 22 35 22 42
0 54 5 78 30 30 33 42 37 47 18z m-779 -38 c3 -5 1 -10 -4 -10 -6 0 -11 5 -11
10 0 6 2 10 4 10 3 0 8 -4 11 -10z m1175 -24 c0 -3 -4 -8 -10 -11 -5 -3 -10
-1 -10 4 0 6 5 11 10 11 6 0 10 -2 10 -4z m1660 -31 c0 -8 -4 -15 -9 -15 -13
0 -22 16 -14 24 11 11 23 6 23 -9z m-40 -36 c-6 -10 -14 -19 -18 -19 -4 0 -13
-14 -20 -30 -8 -17 -18 -28 -23 -24 -5 3 2 20 14 37 13 18 27 40 30 50 4 10
11 15 17 12 7 -4 7 -13 0 -26z m-3130 -19 c0 -5 -4 -10 -10 -10 -5 0 -10 5
-10 10 0 6 5 10 10 10 6 0 10 -4 10 -10z m2954 -3 c18 -13 17 -15 -2 -58 -16
-34 -22 -40 -27 -27 -4 10 0 24 9 33 17 18 22 40 6 30 -5 -3 -7 0 -4 9 4 9 -2
16 -18 19 -20 4 -20 4 -2 6 11 0 28 -5 38 -12z m-2480 -22 c-4 -8 -10 -15 -15
-15 -5 0 -9 7 -9 15 0 8 7 15 15 15 9 0 12 -6 9 -15z m-564 -3 c0 -12 -40 -43
-49 -37 -5 2 -11 -5 -15 -18 -5 -18 -8 -20 -16 -7 -16 25 -11 34 28 52 44 19
52 21 52 10z m1600 -13 c0 -16 52 -59 71 -59 11 0 19 7 19 15 0 20 13 19 34
-4 16 -18 16 -19 -13 -32 -17 -8 -31 -17 -31 -21 0 -5 -10 -8 -23 -8 -15 0
-29 -9 -37 -25 -7 -14 -17 -25 -22 -25 -4 0 -8 -7 -8 -15 0 -8 -7 -15 -16 -15
-9 0 -23 -8 -30 -17 -12 -16 -13 -16 -14 -1 0 9 8 36 18 60 11 25 18 64 17 93
-2 50 9 80 26 69 5 -3 9 -10 9 -15z m-1468 -14 c0 -5 -5 -11 -11 -13 -6 -2
-11 4 -11 13 0 9 5 15 11 13 6 -2 11 -8 11 -13z m2102 6 c3 -4 24 -11 47 -15
30 -5 39 -10 31 -18 -6 -6 -8 -16 -5 -23 3 -10 -2 -12 -16 -8 -25 6 -27 0 -5
-21 30 -30 -2 -16 -41 19 -22 19 -43 35 -47 35 -5 0 -8 9 -8 20 0 20 33 29 44
11z m-2174 -11 c0 -5 -4 -10 -10 -10 -5 0 -10 5 -10 10 0 6 5 10 10 10 6 0 10
-4 10 -10z m185 -10 c-3 -5 -10 -10 -16 -10 -5 0 -9 5 -9 10 0 6 7 10 16 10 8
0 12 -4 9 -10z m300 -8 c-3 -3 -11 0 -18 7 -9 10 -8 11 6 5 10 -3 15 -9 12
-12z m-517 -8 c22 -15 29 -39 14 -48 -16 -10 -53 6 -48 20 3 8 1 14 -4 14 -5
0 -7 7 -4 15 8 19 14 19 42 -1z m3126 1 c-7 -16 -24 -21 -24 -6 0 8 7 13 27
20 1 1 0 -6 -3 -14z m-3052 -57 c-9 -9 -15 -9 -24 0 -10 10 -10 15 2 22 20 12
38 -6 22 -22z m2370 4 c5 -17 2 -17 -18 -8 -29 13 -31 26 -5 26 10 0 21 -8 23
-18z m-86 -43 c1 -25 -1 -28 -8 -15 -5 10 -7 24 -4 32 8 21 11 17 12 -17z
m-46 6 c0 -8 -4 -15 -10 -15 -5 0 -10 7 -10 15 0 8 5 15 10 15 6 0 10 -7 10
-15z m-953 -47 c-3 -8 -6 -5 -6 6 -1 11 2 17 5 13 3 -3 4 -12 1 -19z m473 18
c0 -2 -7 -7 -16 -10 -8 -3 -12 -2 -9 4 6 10 25 14 25 6z m-1670 -16 c0 -5 -5
-10 -11 -10 -5 0 -7 5 -4 10 3 6 8 10 11 10 2 0 4 -4 4 -10z m80 -24 c0 -3 -4
-8 -10 -11 -5 -3 -10 -1 -10 4 0 6 5 11 10 11 6 0 10 -2 10 -4z m2200 -6 c0
-5 -2 -10 -4 -10 -3 0 -8 5 -11 10 -3 6 -1 10 4 10 6 0 11 -4 11 -10z m399
-42 c-4 -24 -11 -51 -15 -61 -4 -12 -1 -22 10 -30 14 -10 15 -18 7 -40 -6 -16
-11 -40 -12 -55 0 -20 -5 -13 -19 28 -12 35 -30 65 -52 83 l-32 27 18 34 c14
26 27 36 59 44 23 5 43 10 43 11 1 0 -2 -18 -7 -41z m-225 -111 c-10 -20 -21
-34 -26 -31 -4 3 -8 -1 -8 -9 0 -8 -9 -22 -20 -32 -20 -19 -20 -19 12 -48 l32
-30 -23 -18 c-36 -29 -61 -10 -62 49 -3 111 11 142 62 142 15 0 31 5 34 11 16
24 14 -1 -1 -34z m89 8 c32 -29 34 -35 8 -35 -11 0 -23 -4 -26 -10 -3 -5 -15
-15 -27 -21 -19 -10 -20 -9 -14 15 4 15 2 26 -4 26 -17 0 -11 28 8 39 23 14
23 14 55 -14z m287 -55 c0 -5 -7 -10 -15 -10 -8 0 -15 5 -15 10 0 6 7 10 15
10 8 0 15 -4 15 -10z m-1863 -34 c-24 -19 -116 -50 -125 -42 -18 19 69 63 128
65 l25 0 -28 -23z m1293 -31 c0 -29 -80 -135 -101 -135 -16 0 -10 10 26 48 19
20 40 49 46 65 10 23 29 38 29 22z m510 -42 c0 -28 -3 -34 -10 -23 -13 20 -13
60 0 60 6 0 10 -17 10 -37z m-1277 10 c-7 -2 -19 -2 -25 0 -7 3 -2 5 12 5 14
0 19 -2 13 -5z m-1760 -18 c-3 -9 -8 -14 -10 -11 -3 3 -2 9 2 15 9 16 15 13 8
-4z m1915 -2 c-5 -25 -28 -28 -28 -4 0 12 6 21 16 21 9 0 14 -7 12 -17z m736
-52 c22 -22 37 -43 34 -46 -7 -7 -108 83 -108 96 0 16 31 -6 74 -50z m-2424
-46 c0 -8 -4 -15 -9 -15 -13 0 -22 16 -14 24 11 11 23 6 23 -9z m90 -15 c0 -6
-11 -15 -25 -20 -14 -5 -25 -14 -25 -20 0 -5 -7 -10 -15 -10 -22 0 -18 27 7
44 25 18 58 21 58 6z m2830 -134 c19 -12 20 -16 7 -16 -19 0 -57 34 -57 52 0
7 5 6 13 -4 6 -8 23 -22 37 -32z m-2351 -21 c16 -8 38 -30 49 -49 l20 -35 -30
-10 c-17 -6 -36 -11 -43 -11 -15 0 -45 64 -45 95 0 29 10 31 49 10z m171 -111
c0 -2 -7 -4 -15 -4 -8 0 -15 4 -15 10 0 5 7 7 15 4 8 -4 15 -8 15 -10z m-120
-304 c0 -5 -4 -10 -10 -10 -5 0 -10 5 -10 10 0 6 5 10 10 10 6 0 10 -4 10 -10z"/>
<path d="M1308 5273 c6 -2 18 -2 25 0 6 3 1 5 -13 5 -14 0 -19 -2 -12 -5z"/>
<path d="M2835 5420 c-3 -5 -1 -10 4 -10 6 0 11 5 11 10 0 6 -2 10 -4 10 -3 0
-8 -4 -11 -10z"/>
<path d="M2810 5380 c0 -5 5 -10 10 -10 6 0 10 5 10 10 0 6 -4 10 -10 10 -5 0
-10 -4 -10 -10z"/>
<path d="M2881 5304 c0 -11 3 -14 6 -6 3 7 2 16 -1 19 -3 4 -6 -2 -5 -13z"/>
<path d="M1600 6368 c-14 -8 -25 -20 -25 -28 0 -12 15 -15 68 -16 37 0 69 -3
71 -5 1 -2 15 -30 29 -61 27 -60 47 -75 46 -35 0 12 3 40 7 62 13 78 12 80
-26 82 -19 1 -60 5 -90 8 -37 4 -63 1 -80 -7z"/>
<path d="M3027 6320 c-20 -61 -30 -80 -44 -80 -11 0 -13 -4 -6 -12 6 -7 15
-26 21 -43 l10 -30 1 28 c1 16 8 44 17 62 8 18 14 48 12 67 -3 32 -4 32 -11 8z"/>
<path d="M1515 6290 c-16 -16 -24 -30 -19 -30 6 0 23 14 39 30 16 17 24 30 19
30 -6 0 -23 -13 -39 -30z"/>
<path d="M1074 6235 c-27 -19 -59 -39 -72 -45 -34 -15 -36 -35 -8 -73 14 -19
26 -38 26 -42 0 -5 12 -21 26 -37 l27 -27 -39 -57 c-35 -50 -40 -65 -45 -138
-12 -138 5 -268 27 -211 7 18 30 20 37 3 3 -8 6 -6 6 5 1 9 9 17 19 18 10 0
12 3 5 6 -7 2 -13 13 -13 24 0 10 -4 19 -10 19 -20 0 -9 27 20 53 31 28 38 51
20 62 -5 3 -10 15 -10 27 0 17 -2 18 -15 8 -11 -9 -19 -10 -26 -3 -7 7 -4 16
12 26 18 13 23 27 24 69 3 68 12 95 36 108 21 12 27 35 7 27 -51 -18 -58 -18
-58 1 0 11 6 23 13 26 6 3 1 3 -12 0 -17 -4 -22 -2 -18 7 2 8 10 13 16 11 8
-1 11 6 9 20 -2 13 -9 22 -16 20 -10 -2 -11 4 -7 20 9 30 34 58 52 58 7 0 13
5 13 10 0 6 28 10 63 10 59 1 61 1 37 15 -44 25 -93 19 -146 -20z"/>
<path d="M2710 6251 c0 -5 9 -11 21 -14 16 -4 18 -3 8 9 -13 16 -29 19 -29 5z"/>
<path d="M1465 6239 c-11 -16 -1 -19 13 -3 7 8 8 14 3 14 -5 0 -13 -5 -16 -11z"/>
<path d="M1960 6233 c0 -14 19 -38 25 -32 8 8 -5 39 -16 39 -5 0 -9 -3 -9 -7z"/>
<path d="M1280 6223 c1 -5 24 -19 52 -33 68 -34 69 -34 62 -17 -3 8 -27 25
-54 36 -54 23 -60 25 -60 14z"/>
<path d="M1817 6213 c-18 -5 -17 -6 2 -20 12 -8 19 -18 16 -23 -7 -12 28 -22
50 -14 15 6 16 4 5 -15 -8 -16 -8 -26 -1 -35 7 -9 7 -16 -1 -24 -9 -9 -6 -17
10 -35 12 -13 22 -28 22 -34 0 -6 5 -13 12 -15 8 -3 8 -9 0 -24 -11 -18 -12
-18 -18 4 -9 33 -21 27 -16 -8 4 -25 1 -30 -16 -30 -12 0 -24 -4 -27 -10 -8
-13 -78 -13 -92 1 -8 8 -13 8 -18 0 -8 -14 3 -18 90 -31 79 -13 136 -14 213
-5 42 5 52 10 52 25 0 10 -5 22 -10 25 -6 4 -20 25 -31 48 -12 23 -39 59 -60
80 -22 21 -51 59 -65 83 -35 60 -60 72 -117 57z m110 -285 c-3 -8 -6 -5 -6 6
-1 11 2 17 5 13 3 -3 4 -12 1 -19z"/>
<path d="M1436 6193 c-6 -14 -5 -15 5 -6 7 7 10 15 7 18 -3 3 -9 -2 -12 -12z"/>
<path d="M2460 6195 c0 -8 5 -15 10 -15 6 0 10 7 10 15 0 8 -4 15 -10 15 -5 0
-10 -7 -10 -15z"/>
<path d="M376 6108 c-14 -29 -27 -65 -28 -80 -1 -16 -6 -28 -11 -28 -14 0 18
-27 41 -34 18 -6 22 -3 22 15 0 17 -3 19 -13 10 -18 -15 -25 -6 -19 24 5 27
17 33 26 13 3 -7 5 3 5 22 0 19 2 52 4 73 3 20 4 37 2 37 -2 0 -15 -24 -29
-52z"/>
<path d="M2080 6034 c0 -17 57 -67 72 -62 8 3 4 9 -12 17 -14 8 -33 23 -42 35
-10 11 -18 16 -18 10z"/>
<path d="M1470 6015 c0 -8 73 -36 84 -32 6 2 -11 11 -37 20 -26 9 -47 14 -47
12z"/>
<path d="M1367 5959 c-30 -42 -24 -53 10 -16 27 30 35 45 26 50 -5 3 -21 -12
-36 -34z"/>
<path d="M630 5971 c0 -5 7 -12 16 -15 14 -5 15 -4 4 9 -14 17 -20 19 -20 6z"/>
<path d="M306 5920 c-7 -33 -19 -61 -66 -163 -11 -24 -20 -52 -20 -63 -1 -10
-7 -32 -14 -49 -20 -45 -31 -9 -17 55 14 66 15 121 1 100 -9 -13 -10 -13 -10
0 -1 12 -4 11 -15 -4 -8 -10 -12 -23 -9 -27 3 -5 0 -9 -5 -9 -6 0 -11 -6 -11
-14 0 -8 -4 -16 -9 -18 -16 -5 -32 -129 -20 -145 8 -9 7 -14 -5 -19 -9 -3 -16
-11 -16 -18 0 -6 -19 -12 -42 -13 -22 -2 -43 -4 -45 -7 -2 -2 -2 -50 -1 -107
l3 -104 32 33 c17 17 34 32 37 32 3 0 2 -23 -1 -52 -5 -44 -4 -50 8 -40 8 7
29 25 48 41 32 27 34 32 35 99 2 64 5 73 29 92 15 12 27 25 27 29 0 4 20 30
45 57 25 27 45 54 45 61 0 7 6 13 14 13 10 0 17 16 21 48 3 26 10 57 16 70 5
13 9 36 9 52 0 16 4 40 9 54 7 17 6 27 -3 35 -13 11 -26 5 -26 -11 0 -5 5 -6
11 -3 6 4 5 -2 -3 -14 -19 -31 -36 -26 -40 12 l-3 32 -9 -35z m44 -60 c0 -5
-4 -10 -10 -10 -5 0 -10 5 -10 10 0 6 5 10 10 10 6 0 10 -4 10 -10z"/>
<path d="M1315 5900 c-3 -5 -1 -10 4 -10 6 0 11 5 11 10 0 6 -2 10 -4 10 -3 0
-8 -4 -11 -10z"/>
<path d="M2200 5885 c7 -9 15 -13 17 -11 7 7 -7 26 -19 26 -6 0 -6 -6 2 -15z"/>
<path d="M1091 5664 c0 -11 3 -14 6 -6 3 7 2 16 -1 19 -3 4 -6 -2 -5 -13z"/>
<path d="M1387 5649 c-24 -14 -11 -32 14 -19 10 6 19 15 19 20 0 13 -10 12
-33 -1z"/>
<path d="M2424 5622 c4 -7 14 -12 22 -12 8 0 17 -6 20 -13 2 -7 18 -14 35 -15
38 -3 30 14 -14 27 -18 5 -41 12 -51 17 -14 5 -17 4 -12 -4z"/>
<path d="M4416 5505 c-8 -22 10 -45 35 -45 10 0 21 -4 24 -10 3 -5 21 -10 38
-10 l32 1 -25 14 c-14 8 -34 14 -45 15 -11 0 -27 12 -36 26 -14 23 -17 24 -23
9z"/>
<path d="M5296 5405 c-10 -42 -15 -79 -12 -82 3 -4 6 1 6 10 0 9 7 37 16 62 8
26 14 55 12 66 -2 12 -11 -14 -22 -56z"/>
<path d="M4240 5349 c0 -5 5 -7 10 -4 6 3 10 8 10 11 0 2 -4 4 -10 4 -5 0 -10
-5 -10 -11z"/>
<path d="M5271 5278 c0 -16 -5 -28 -10 -28 -5 0 -11 -13 -13 -30 -3 -16 -2
-30 1 -30 13 0 32 61 28 87 l-4 28 -2 -27z"/>
<path d="M4498 5223 c-30 -15 -39 -39 -12 -29 9 3 21 6 29 6 7 0 15 9 18 20 6
23 2 23 -35 3z"/>
<path d="M668 5223 c7 -3 16 -2 19 1 4 3 -2 6 -13 5 -11 0 -14 -3 -6 -6z"/>
<path d="M5222 5148 c-6 -6 -12 -20 -12 -29 0 -10 -6 -24 -14 -31 -7 -8 -15
-43 -18 -80 -2 -44 -10 -73 -21 -86 -19 -20 -23 -37 -7 -27 6 3 10 1 10 -4 0
-6 -4 -11 -10 -11 -5 0 -10 -9 -10 -19 0 -11 -5 -21 -11 -23 -6 -2 -11 -16
-11 -31 0 -17 -9 -32 -24 -42 -27 -17 -22 -45 8 -45 17 0 16 -3 -8 -25 -15
-14 -36 -25 -46 -25 -12 0 -18 -5 -15 -12 2 -7 -2 -25 -10 -40 -12 -24 -11
-32 2 -58 19 -37 19 -40 -4 -40 -21 0 -31 -19 -31 -60 0 -21 -8 -33 -29 -46
-17 -10 -38 -33 -48 -51 -24 -46 -71 -73 -137 -80 -46 -5 -61 -2 -102 21 -26
14 -49 24 -52 21 -3 -3 0 -5 6 -5 7 0 12 -7 12 -15 0 -8 5 -15 11 -15 16 0
173 -134 187 -161 11 -21 10 -32 -13 -82 -14 -32 -37 -69 -51 -82 l-25 -24 23
-40 c13 -23 35 -47 51 -54 15 -6 27 -15 27 -19 0 -5 4 -8 8 -8 5 0 8 22 7 49
-1 32 3 48 9 44 6 -4 2 4 -9 18 -11 13 -21 26 -23 29 -2 2 -7 -2 -12 -10 -5
-8 -12 -11 -16 -7 -4 4 2 18 14 30 12 13 19 27 15 30 -3 4 -2 7 4 7 17 0 23
-13 12 -26 -8 -9 -5 -15 9 -23 11 -6 22 -8 25 -4 4 3 14 0 23 -8 15 -12 16
-11 10 9 -8 26 8 30 22 6 8 -15 10 -15 16 1 3 9 3 22 -1 28 -4 7 5 4 19 -5 23
-15 27 -15 32 -2 3 8 2 12 -4 9 -6 -4 -10 6 -10 21 0 26 0 27 20 9 23 -21 26
-9 7 27 -7 14 -18 23 -25 20 -7 -2 -12 6 -12 22 0 36 21 33 56 -9 16 -19 33
-35 38 -35 5 0 2 8 -7 18 -19 20 -23 52 -7 52 6 0 10 -4 10 -9 0 -5 9 -13 20
-16 11 -3 20 -11 20 -17 0 -14 51 -53 71 -54 12 -1 18 10 23 44 14 105 -1 238
-46 386 -18 59 -19 76 -10 115 7 25 11 96 11 156 0 61 5 123 10 138 6 15 10
31 9 35 -3 15 15 110 34 175 20 73 21 96 0 75z m-75 -340 c-3 -8 -6 -5 -6 6
-1 11 2 17 5 13 3 -3 4 -12 1 -19z m-242 -816 c-3 -3 -11 0 -18 7 -9 10 -8 11
6 5 10 -3 15 -9 12 -12z"/>
<path d="M4530 5070 c-167 -39 -170 -46 -13 -25 61 9 114 15 119 14 5 -1 16
-1 24 1 11 1 9 4 -5 10 -25 11 -79 10 -125 0z"/>
<path d="M1175 4940 c3 -5 18 -10 33 -9 24 0 25 1 7 9 -28 12 -47 12 -40 0z"/>
<path d="M4636 4934 c-4 -9 -4 -19 -1 -22 3 -3 5 0 5 6 0 7 10 12 23 12 18 0
19 2 7 10 -21 14 -27 12 -34 -6z"/>
<path d="M3770 4780 c0 -5 5 -10 10 -10 6 0 10 5 10 10 0 6 -4 10 -10 10 -5 0
-10 -4 -10 -10z"/>
<path d="M4730 4770 c-9 -6 -10 -10 -3 -10 6 0 15 5 18 10 8 12 4 12 -15 0z"/>
<path d="M4615 4760 c3 -5 17 -10 31 -10 14 0 22 4 19 10 -3 6 -17 10 -31 10
-14 0 -22 -4 -19 -10z"/>
<path d="M4740 4740 c0 -5 7 -10 15 -10 8 0 15 5 15 10 0 6 -7 10 -15 10 -8 0
-15 -4 -15 -10z"/>
<path d="M4720 4690 c0 -19 3 -21 12 -12 9 9 9 15 0 24 -9 9 -12 7 -12 -12z"/>
<path d="M4647 4639 c6 -6 26 -14 44 -19 19 -4 41 -10 49 -14 20 -8 48 10 35
22 -15 14 -142 25 -128 11z"/>
<path d="M1730 4608 c0 -10 49 -62 54 -57 2 2 -9 18 -25 34 -16 17 -29 27 -29
23z"/>
<path d="M4715 4531 c-4 -33 -2 -55 6 -69 13 -20 14 -20 26 10 21 50 15 108
-12 108 -8 0 -16 -19 -20 -49z"/>
<path d="M378 4563 c6 -2 18 -2 25 0 6 3 1 5 -13 5 -14 0 -19 -2 -12 -5z"/>
<path d="M328 4553 c6 -2 18 -2 25 0 6 3 1 5 -13 5 -14 0 -19 -2 -12 -5z"/>
<path d="M3360 4480 c-9 -6 -10 -10 -3 -10 6 0 15 5 18 10 8 12 4 12 -15 0z"/>
<path d="M145 4470 c3 -5 8 -10 11 -10 2 0 4 5 4 10 0 6 -5 10 -11 10 -5 0 -7
-4 -4 -10z"/>
<path d="M4670 4460 c0 -5 5 -10 11 -10 5 0 7 5 4 10 -3 6 -8 10 -11 10 -2 0
-4 -4 -4 -10z"/>
<path d="M1642 4438 c-7 -9 -6 -17 4 -26 12 -11 14 -9 14 13 0 28 -3 30 -18
13z"/>
<path d="M3385 4430 c3 -5 11 -10 16 -10 6 0 7 5 4 10 -3 6 -11 10 -16 10 -6
0 -7 -4 -4 -10z"/>
<path d="M1670 4382 c0 -12 19 -26 26 -19 2 2 -2 10 -11 17 -9 8 -15 8 -15 2z"/>
<path d="M4157 4304 c6 -15 23 -19 23 -5 0 5 -7 11 -14 14 -10 4 -13 1 -9 -9z"/>
<path d="M4445 4270 c3 -5 14 -10 23 -10 15 0 15 2 2 10 -20 13 -33 13 -25 0z"/>
<path d="M4262 4244 c10 -10 20 -15 24 -12 3 4 -5 12 -18 18 -22 12 -22 12 -6
-6z"/>
<path d="M388 4220 c18 -16 37 -30 44 -30 14 0 -34 45 -58 54 -12 4 -6 -6 14
-24z"/>
<path d="M4303 4168 l0 -63 10 53 c7 35 7 56 0 63 -6 6 -10 -12 -10 -53z"/>
<path d="M4197 4083 c-4 -3 -7 -11 -7 -17 0 -6 5 -5 12 2 6 6 9 14 7 17 -3 3
-9 2 -12 -2z"/>
<path d="M4331 4087 c2 -1 13 -9 24 -17 19 -14 19 -14 6 3 -7 9 -18 17 -24 17
-6 0 -8 -1 -6 -3z"/>
<path d="M4556 4067 c3 -10 9 -15 12 -12 3 3 0 11 -7 18 -10 9 -11 8 -5 -6z"/>
<path d="M4166 4015 c-9 -26 -7 -32 5 -12 6 10 9 21 6 23 -2 3 -7 -2 -11 -11z"/>
<path d="M2859 3941 c8 -5 32 -8 53 -5 21 2 38 -1 38 -6 0 -6 5 -10 10 -10 6
0 10 7 10 15 0 12 -14 15 -62 15 -41 0 -58 -3 -49 -9z"/>
<path d="M3242 3901 c18 -14 25 -30 26 -57 1 -20 8 -47 17 -60 8 -13 15 -30
15 -38 0 -7 9 -24 20 -37 l20 -24 37 40 c21 22 46 51 56 65 l18 25 -5 -30 c-3
-19 -23 -50 -51 -79 -45 -45 -46 -48 -31 -69 9 -12 21 -32 26 -44 5 -13 13
-23 18 -23 10 0 52 134 52 166 0 11 7 29 15 40 14 19 14 18 15 -3 0 -12 -6
-42 -14 -65 -30 -91 -39 -178 -22 -206 13 -21 25 -13 35 21 5 17 10 24 10 15
1 -9 6 -20 13 -24 6 -4 8 -3 5 3 -4 6 0 16 8 23 10 9 15 9 15 1 0 -6 5 -11 10
-11 6 0 10 16 10 35 0 19 5 35 10 35 6 0 10 -10 10 -23 0 -19 6 -23 35 -25 40
-3 43 7 20 52 -23 43 -4 55 35 22 17 -14 28 -26 25 -26 -4 0 -2 -7 5 -15 6 -8
9 -19 5 -24 -3 -7 0 -8 9 -5 9 3 16 11 16 16 0 6 7 8 15 4 8 -3 15 -2 15 3 0
5 -7 14 -15 21 -20 16 -19 30 1 30 10 0 14 -6 10 -15 -3 -8 -2 -14 2 -12 4 1
29 -14 56 -33 27 -19 55 -34 63 -32 11 2 13 -2 8 -17 -4 -13 1 -24 16 -35 13
-9 19 -21 16 -30 -3 -8 -1 -18 5 -22 7 -4 8 -3 4 4 -4 7 -3 12 2 12 16 0 24
-33 10 -42 -10 -6 -10 -10 2 -17 8 -6 11 -14 6 -18 -4 -4 -13 0 -20 9 -7 10
-16 15 -19 11 -4 -3 -7 1 -7 10 0 8 -8 18 -17 21 -10 3 -47 33 -82 66 -36 33
-68 60 -73 60 -17 0 -7 -26 17 -44 13 -10 22 -22 19 -27 -8 -14 19 -47 34 -41
9 3 13 1 9 -5 -7 -12 14 -63 26 -63 4 0 12 10 18 23 7 17 8 14 4 -16 -4 -21
-8 -44 -11 -51 -3 -9 3 -13 20 -13 15 0 26 6 29 18 8 29 37 35 56 12 11 -15
33 -22 76 -27 89 -9 133 -24 152 -52 22 -35 43 -147 31 -169 -6 -9 -7 -19 -4
-22 3 -3 13 13 22 36 9 22 20 38 26 35 5 -3 5 -11 -2 -19 -8 -9 -6 -14 5 -19
9 -3 15 0 15 10 0 12 5 14 18 9 9 -4 28 -9 42 -11 23 -4 24 -4 5 7 -11 6 -54
49 -95 96 -41 47 -85 95 -96 107 -26 25 -70 104 -63 111 3 3 24 -17 46 -45 22
-27 42 -47 45 -45 2 3 17 -9 33 -25 16 -17 26 -30 22 -30 -3 0 20 -24 51 -52
31 -29 61 -59 65 -65 4 -7 13 -13 19 -13 6 0 4 8 -6 19 -13 14 -14 24 -7 45 6
14 17 26 25 26 10 0 13 6 10 15 -4 8 -9 13 -14 10 -4 -2 -5 7 -2 20 2 15 0 25
-7 25 -6 0 -11 7 -11 16 0 8 5 12 10 9 6 -3 10 1 10 10 0 20 -34 58 -58 63
-58 13 -72 13 -72 3 0 -6 4 -11 8 -11 5 0 17 -18 27 -40 18 -41 30 -50 38 -27
2 6 4 -3 4 -21 l0 -33 -35 33 c-19 18 -51 50 -70 71 -19 21 -40 36 -46 34 -6
-2 -19 4 -30 14 -10 10 -37 27 -60 38 -47 23 -119 64 -126 71 -3 3 -29 23 -57
45 -29 21 -53 42 -53 47 0 4 -16 10 -36 14 -27 5 -41 16 -60 46 -14 21 -27 52
-31 68 -5 28 -3 30 21 28 14 -1 26 -6 26 -10 0 -4 6 -8 13 -8 18 -1 77 -57 77
-74 0 -8 -4 -18 -10 -21 -17 -10 -11 -25 13 -34 12 -5 32 -19 45 -30 12 -12
22 -19 22 -16 0 4 13 -4 29 -18 16 -13 51 -35 78 -47 26 -13 56 -30 66 -38 25
-22 21 1 -7 30 -12 14 -32 41 -44 59 -11 19 -31 41 -43 49 -12 8 -30 24 -41
35 -16 17 -20 18 -28 5 -10 -16 -9 -17 -14 25 -1 6 -11 22 -24 35 -12 13 -22
30 -22 37 0 7 -4 13 -10 13 -5 0 -10 7 -10 16 0 14 3 14 15 4 8 -7 15 -9 15
-5 0 4 7 2 15 -5 8 -7 15 -9 15 -4 0 5 8 -7 19 -26 10 -19 25 -36 33 -38 12
-2 10 9 -11 52 l-26 55 -50 -1 c-27 -1 -55 -5 -62 -10 -7 -5 -19 -5 -30 1 -10
5 -74 17 -143 26 -69 10 -130 20 -137 22 -6 2 -13 -4 -16 -14 -4 -16 -5 -16
-6 -1 -1 19 -4 20 -142 43 -122 19 -127 19 -97 -4z m238 -71 c0 -5 -2 -10 -4
-10 -3 0 -8 5 -11 10 -3 6 -1 10 4 10 6 0 11 -4 11 -10z m23 -173 c-8 -18 -10
-13 -11 28 0 46 1 48 10 22 7 -19 7 -36 1 -50z m487 -223 c0 -8 -4 -12 -10 -9
-5 3 -10 10 -10 16 0 5 5 9 10 9 6 0 10 -7 10 -16z"/>
<path d="M5276 3885 c4 -8 10 -15 15 -15 4 0 6 7 3 15 -4 8 -10 15 -15 15 -4
0 -6 -7 -3 -15z"/>
<path d="M2580 3858 c0 -22 17 -42 24 -29 4 6 0 18 -8 27 -12 12 -16 12 -16 2z"/>
<path d="M4892 3850 c-11 -17 -10 -23 4 -37 13 -14 17 -14 24 -2 5 7 12 10 17
6 4 -5 1 -12 -7 -18 -13 -8 -13 -10 0 -19 8 -5 20 -8 27 -5 7 2 10 -1 7 -8 -2
-7 7 -17 21 -24 20 -9 25 -8 25 3 0 8 -4 14 -10 14 -5 0 -9 4 -7 8 1 4 -13 25
-32 47 -18 22 -30 34 -26 26 6 -11 4 -13 -9 -8 -10 4 -19 7 -22 7 -2 0 -1 7 2
15 9 21 1 19 -14 -5z"/>
<path d="M2516 3841 c-16 -11 -34 -17 -41 -14 -17 6 -25 -75 -9 -88 8 -7 14
-7 18 0 4 5 2 12 -4 16 -13 8 -13 25 0 25 6 0 10 -7 10 -15 0 -8 4 -15 9 -15
5 0 18 -3 28 -7 16 -6 16 -5 5 10 -16 19 -6 41 14 33 20 -8 17 1 -8 27 l-23
22 23 3 c12 2 22 8 22 13 0 14 -12 11 -44 -10z"/>
<path d="M3968 3843 c7 -3 16 -2 19 1 4 3 -2 6 -13 5 -11 0 -14 -3 -6 -6z"/>
<path d="M3220 3823 c0 -7 7 -36 15 -65 30 -113 27 -111 -34 22 l-11 25 5 -27
c7 -34 -20 -40 -28 -7 -4 16 -11 20 -26 16 -11 -3 -22 0 -25 7 -5 13 -9 -27
-6 -64 1 -14 13 -60 27 -103 13 -44 23 -81 20 -83 -4 -5 -59 62 -75 92 -8 16
-8 24 0 32 9 9 9 12 0 12 -7 0 -24 12 -39 26 -14 14 -27 24 -28 22 -11 -11
-13 -104 -4 -150 6 -29 15 -71 19 -93 4 -22 13 -41 19 -43 6 -2 17 -9 24 -15
13 -13 49 -31 80 -41 10 -3 25 -19 35 -36 13 -22 22 -28 37 -23 32 10 44 33
32 61 -7 16 -8 26 -1 30 6 4 16 16 23 27 l13 20 -8 -20 c-16 -48 -16 -65 1
-72 34 -12 59 50 33 79 -15 15 -38 77 -38 101 0 25 -12 21 -54 -17 -32 -30
-36 -38 -27 -55 14 -25 14 -41 1 -41 -5 0 -10 11 -10 25 0 16 -6 25 -15 25
-26 0 -17 17 40 71 32 30 55 61 55 73 0 15 3 17 9 8 6 -10 10 -10 21 2 10 13
9 24 -9 60 -11 24 -25 47 -31 51 -5 3 -10 14 -10 24 0 19 -29 63 -30 44z m-10
-110 c0 -19 -3 -24 -10 -17 -6 6 -8 18 -4 27 9 24 14 21 14 -10z m-40 -22 c0
-6 -4 -13 -10 -16 -5 -3 -10 1 -10 9 0 9 5 16 10 16 6 0 10 -4 10 -9z"/>
<path d="M4786 3803 c-6 -7 25 -51 74 -105 29 -32 39 -58 21 -58 -9 0 -68 69
-85 99 -14 24 -36 44 -42 38 -12 -12 88 -146 123 -164 30 -16 44 -17 23 -2
-10 7 -11 12 -4 15 7 3 10 14 7 24 -3 11 0 20 6 20 6 0 11 7 11 15 0 9 10 15
23 16 14 0 17 2 7 6 -8 3 -35 20 -60 36 -25 17 -57 38 -71 48 -15 10 -29 15
-33 12z"/>
<path d="M2598 3771 c-17 -20 -13 -70 6 -83 6 -5 1 -8 -11 -8 -24 0 -31 -14
-12 -25 6 -4 8 -13 5 -21 -4 -10 3 -14 24 -14 36 0 37 6 8 31 -13 10 -17 18
-10 19 6 0 12 -4 12 -10 0 -5 5 -10 11 -10 6 0 9 7 5 15 -3 8 -1 15 5 15 14 0
3 66 -15 92 -12 16 -13 16 -28 -1z"/>
<path d="M2992 3740 c0 -14 2 -19 5 -12 2 6 2 18 0 25 -3 6 -5 1 -5 -13z"/>
<path d="M2950 3710 c-2 -19 -2 -41 -1 -48 1 -7 -5 -15 -14 -18 -8 -3 -15 -14
-15 -24 0 -10 -5 -20 -12 -22 -7 -3 -8 -10 -4 -17 7 -11 10 -11 18 0 7 11 8
10 4 -4 -8 -23 15 -58 54 -80 35 -21 35 -20 15 53 -8 30 -15 73 -15 95 0 31
-3 37 -11 25 -8 -12 -10 -10 -6 10 3 14 1 34 -3 45 -7 16 -9 14 -10 -15z"/>
<path d="M2484 3722 c-17 -11 -22 -35 -13 -59 11 -30 27 -29 22 1 -4 18 1 25
19 31 12 4 29 6 37 5 7 -1 10 4 6 10 -4 6 -16 8 -27 4 -14 -4 -18 -2 -14 5 8
12 -13 15 -30 3z"/>
<path d="M5310 3690 c0 -5 7 -7 15 -4 8 4 15 8 15 10 0 2 -7 4 -15 4 -8 0 -15
-4 -15 -10z"/>
<path d="M5368 3693 c7 -3 16 -2 19 1 4 3 -2 6 -13 5 -11 0 -14 -3 -6 -6z"/>
<path d="M4773 3672 c10 -10 17 -24 17 -30 0 -7 5 -12 10 -12 6 0 10 3 10 8 0
14 -31 52 -42 52 -6 0 -4 -8 5 -18z"/>
<path d="M2671 3645 c-1 -40 0 -41 44 -53 26 -7 57 -25 75 -43 16 -18 30 -27
30 -21 0 15 -60 76 -77 78 -21 3 -43 24 -43 41 0 8 -4 12 -9 8 -5 -3 -12 3
-14 12 -3 10 -5 0 -6 -22z"/>
<path d="M4988 3660 c5 -13 14 -26 20 -28 19 -6 14 13 -8 33 -20 18 -21 18
-12 -5z"/>
<path d="M2545 3640 c-3 -5 1 -10 10 -10 9 0 13 5 10 10 -3 6 -8 10 -10 10 -2
0 -7 -4 -10 -10z"/>
<path d="M2861 3640 c0 -8 6 -26 15 -40 l15 -25 -7 25 c-3 14 -10 32 -15 40
-7 13 -8 13 -8 0z"/>
<path d="M4750 3636 c0 -8 5 -18 10 -21 6 -3 10 1 10 9 0 8 -4 18 -10 21 -5 3
-10 -1 -10 -9z"/>
<path d="M3302 3607 c-19 -20 -20 -28 -11 -60 5 -20 14 -39 20 -43 6 -3 15
-18 21 -32 l10 -27 9 23 c4 12 12 22 17 22 5 0 14 11 20 25 9 20 8 28 -6 42
-10 10 -24 30 -31 46 -17 33 -22 33 -49 4z m33 -78 c10 -30 0 -33 -13 -4 -6
14 -7 25 -2 25 5 0 12 -9 15 -21z"/>
<path d="M4920 3618 c0 -5 9 -8 20 -8 11 0 23 0 27 -1 4 0 9 4 11 9 1 5 -11 9
-28 8 -16 -1 -30 -4 -30 -8z"/>
<path d="M2890 3527 c0 -9 4 -17 8 -17 5 0 15 -18 22 -41 13 -39 40 -65 54
-52 3 3 6 1 6 -5 0 -7 11 -12 25 -12 34 0 33 32 -2 60 -26 20 -28 20 -34 3 -4
-10 -5 -21 -2 -25 2 -5 0 -8 -6 -8 -6 0 -13 11 -17 25 -3 14 -10 25 -15 25 -5
0 -9 6 -9 13 0 6 -7 21 -15 31 -13 17 -15 18 -15 3z"/>
<path d="M2850 3502 c0 -4 9 -13 20 -20 19 -12 20 -11 8 8 -13 20 -28 27 -28
12z"/>
<path d="M3401 3491 c-7 -12 -7 -22 -2 -26 5 -3 13 4 16 16 9 28 -1 36 -14 10z"/>
<path d="M4626 3417 c-10 -32 17 -97 39 -97 12 0 12 5 4 27 -6 15 -14 32 -19
38 -4 5 -10 21 -12 35 l-4 25 -8 -28z"/>
<path d="M3066 3383 c4 -15 10 -35 14 -43 5 -8 8 -18 9 -23 1 -16 17 -33 61
-67 25 -19 48 -38 51 -43 3 -5 9 -1 12 7 9 23 -13 66 -33 66 -22 0 -57 27 -47
36 4 5 17 3 27 -4 28 -17 30 -15 18 18 -9 27 -48 62 -48 43 0 -4 -6 0 -12 9
-7 9 -23 19 -36 23 -21 6 -22 4 -16 -22z"/>
<path d="M3020 3360 c21 -19 36 -27 38 -20 6 16 -17 36 -48 45 -23 6 -22 4 10
-25z"/>
<path d="M3330 3360 c0 -5 5 -10 10 -10 6 0 10 5 10 10 0 6 -4 10 -10 10 -5 0
-10 -4 -10 -10z"/>
<path d="M4506 3356 c5 -13 53 -36 75 -36 17 0 9 20 -8 20 -10 0 -27 7 -37 15
-25 19 -37 19 -30 1z"/>
<path d="M3745 3324 l-40 -24 55 6 c65 8 67 9 50 29 -15 19 -16 19 -65 -11z"/>
<path d="M4580 3300 c0 -5 5 -10 11 -10 5 0 7 5 4 10 -3 6 -8 10 -11 10 -2 0
-4 -4 -4 -10z"/>
<path d="M3220 3190 c0 -5 5 -10 10 -10 6 0 10 5 10 10 0 6 -4 10 -10 10 -5 0
-10 -4 -10 -10z"/>
<path d="M4022 2650 c-53 -12 -50 -21 6 -16 29 2 52 8 53 12 0 12 -20 14 -59
4z"/>
<path d="M3845 2630 c3 -5 14 -10 23 -10 15 0 15 2 2 10 -20 13 -33 13 -25 0z"/>
<path d="M4382 2458 c-7 -7 -12 -32 -11 -57 l1 -46 13 55 c15 60 14 65 -3 48z"/>
<path d="M4060 2165 c-11 -13 -10 -14 4 -9 9 3 16 10 16 15 0 13 -6 11 -20 -6z"/>
<path d="M1052 740 c0 -14 2 -19 5 -12 2 6 2 18 0 25 -3 6 -5 1 -5 -13z"/>
<path d="M1043 525 c0 -22 2 -30 4 -17 2 12 2 30 0 40 -3 9 -5 -1 -4 -23z"/>
</g>
</svg>
